:FULLY-SPECIFIED
:FORCE-ALL-JOINTS-BE-3DOF
:DEGREES
95
root 0.626966 17.4629 14.4038 -0.198148 3.45309 3.09509
lfemur -10.0306 -1.38771 -25.977
ltibia 47.9947 0 0
lfoot -7.35318 -0.321867 0
ltoes -14.4692 0 0
rfemur -14.4345 -8.93637 17.0806
rtibia 94.187 0 0
rfoot 18.5525 -6.5423 0
rtoes 24.0147 0 0
lowerback 17.8327 -1.01064 -4.3277
upperback 2.75931 -2.30015 -2.09751
thorax -6.94112 -1.03545 0.745343
lowerneck -7.09424 -0.37132 -1.81993
upperneck -8.19321 -0.206233 3.17068
head -1.34198 -0.0995483 1.32587
lclavicle -3.86337e-15 3.8513e-14 0
lhumerus -28.0376 -16.6626 86.7876
lradius 106.797 0 0
lwrist 28.5564 0 0
lhand -36.2284 7.40575 0
lfingers 7.12502 0 0
lthumb -9.33022 37.1799 0
rclavicle -3.86337e-15 3.8513e-14 0
rhumerus -47.0004 7.16995 -84.8493
rradius 80.7301 0 0
rwrist 0.367356 0 0
rhand -44.597 38.2451 0
rfingers 7.12502 0 0
rthumb -17.3959 9.00352 0
96
root 0.631682 17.4642 14.9448 -0.211789 3.14601 3.00074
lfemur -9.57306 -0.967237 -25.627
ltibia 49.5309 0 0
lfoot -6.21492 -0.316893 0
ltoes -14.2362 0 0
rfemur -14.6126 -8.47931 17.4041
rtibia 92.3097 0 0
rfoot 17.6331 -6.53834 0
rtoes 23.5691 0 0
lowerback 17.8215 -1.03351 -4.1339
upperback 2.72278 -2.28514 -1.98612
thorax -6.97747 -1.03169 0.751842
lowerneck -7.09426 -0.26394 -1.76097
upperneck -8.16854 -0.0790837 2.92958
head -1.33286 -0.0352112 1.24125
lclavicle -4.84662e-15 3.78754e-14 0
lhumerus -28.6085 -16.7867 87.0314
lradius 106.762 0 0
lwrist 28.5114 0 0
lhand -36.2702 7.43961 0
lfingers 7.12502 0 0
lthumb -9.37057 37.2119 0
rclavicle -4.84662e-15 3.78754e-14 0
rhumerus -46.7484 7.32519 -84.8474
rradius 81.0606 0 0
rwrist 0.245768 0 0
rhand -44.5935 38.2581 0
rfingers 7.12502 0 0
rthumb -17.3925 9.01622 0
97
root 0.636398 17.4656 15.4858 -0.223115 2.82217 2.89865
lfemur -9.11196 -0.524559 -25.2566
ltibia 51.1511 0 0
lfoot -5.02978 -0.314347 0
ltoes -13.993 0 0
rfemur -14.796 -8.00145 17.7462
rtibia 90.3462 0 0
rfoot 16.666 -6.53418 0
rtoes 23.0909 0 0
lowerback 17.8104 -1.05692 -3.92943
upperback 2.68489 -2.26834 -1.8689
thorax -7.01546 -1.02727 0.758137
lowerneck -7.09078 -0.151443 -1.69865
upperneck -8.14828 0.0539564 2.67715
head -1.3255 0.0321687 1.15247
lclavicle -5.86483e-15 3.72023e-14 0
lhumerus -29.208 -16.911 87.288
lradius 106.725 0 0
lwrist 28.4684 0 0
lhand -36.3152 7.47847 0
lfingers 7.12502 0 0
lthumb -9.41404 37.2487 0
rclavicle -5.86483e-15 3.72023e-14 0
rhumerus -46.4792 7.48828 -84.8474
rradius 81.413 0 0
rwrist 0.118732 0 0
rhand -44.5899 38.2714 0
rfingers 7.12502 0 0
rthumb -17.389 9.02921 0
98
root 0.641114 17.4669 16.0268 -0.232269 2.48324 2.7895
lfemur -8.64817 -0.0618754 -24.8676
ltibia 52.8471 0 0
lfoot -3.80274 -0.314062 0
ltoes -13.7409 0 0
rfemur -14.984 -7.50497 18.1051
rtibia 88.3054 0 0
rfoot 15.6559 -6.52984 0
rtoes 22.5829 0 0
lowerback 17.7994 -1.08079 -3.71531
upperback 2.6458 -2.2499 -1.74642
thorax -7.05491 -1.02224 0.764233
lowerneck -7.08404 -0.034352 -1.6333
upperneck -8.13217 0.192281 2.41455
head -1.31979 0.10228 1.05993
lclavicle -6.91408e-15 3.64973e-14 0
lhumerus -29.8333 -17.0352 87.5563
lradius 106.685 0 0
lwrist 28.4274 0 0
lhand -36.3632 7.52194 0
lfingers 7.12502 0 0
lthumb -9.46034 37.2899 0
rclavicle -6.91408e-15 3.64973e-14 0
rhumerus -46.1944 7.65844 -84.8493
rradius 81.7854 0 0
rwrist -0.0131849 0 0
rhand -44.5862 38.2849 0
rfingers 7.12502 0 0
rthumb -17.3854 9.04244 0
99
root 0.64583 17.4683 16.5679 -0.239398 2.13084 2.67399
lfemur -8.18261 0.418613 -24.462
ltibia 54.6106 0 0
lfoot -2.53884 -0.315873 0
ltoes -13.4808 0 0
rfemur -15.176 -6.992 18.479
rtibia 86.1962 0 0
rfoot 14.6077 -6.52534 0
rtoes 22.0483 0 0
lowerback 17.7884 -1.10505 -3.49262
upperback 2.60565 -2.22997 -1.61927
thorax -7.09564 -1.01666 0.770136
lowerneck -7.0743 0.0868114 -1.56523
upperneck -8.11991 0.335284 2.14295
head -1.31562 0.174811 0.964072
lclavicle -7.99042e-15 3.57638e-14 0
lhumerus -30.4815 -17.1592 87.8349
lradius 106.644 0 0
lwrist 28.3883 0 0
lhand -36.4139 7.56959 0
lfingers 7.12502 0 0
lthumb -9.50921 37.3352 0
rclavicle -7.99042e-15 3.57638e-14 0
rhumerus -45.8957 7.83489 -84.8529
rradius 82.1758 0 0
rwrist -0.149416 0 0
rhand -44.5824 38.2987 0
rfingers 7.12502 0 0
rthumb -17.3817 9.05588 0
100
root 0.650546 17.4696 17.1089 -0.244648 1.76664 2.5528
lfemur -7.71622 0.914706 -24.0419
ltibia 56.4334 0 0
lfoot -1.24309 -0.319612 0
ltoes -13.2137 0 0
rfemur -15.3714 -6.46471 18.8661
rtibia 84.0275 0 0
rfoot 13.526 -6.52071 0
rtoes 21.49 0 0
lowerback 17.7775 -1.12962 -3.26237
upperback 2.5646 -2.2087 -1.48802
thorax -7.1375 -1.01057 0.77585
lowerneck -7.06181 0.211525 -1.49479
upperneck -8.11124 0.482359 1.8635
head -1.31288 0.249452 0.865305
lclavicle -9.08993e-15 3.50052e-14 0
lhumerus -31.1497 -17.2828 88.1226
lradius 106.6 0 0
lwrist 28.351 0 0
lhand -36.4669 7.62104 0
lfingers 7.12502 0 0
lthumb -9.56035 37.3842 0
rclavicle -9.08993e-15 3.50052e-14 0
rhumerus -45.5845 8.01683 -84.858
rradius 82.582 0 0
rwrist -0.289395 0 0
rhand -44.5785 38.3126 0
rfingers 7.12502 0 0
rthumb -17.3781 9.06949 0
101
root 0.655262 17.471 17.6499 -0.248165 1.39226 2.42663
lfemur -7.24992 1.4242 -23.6092
ltibia 58.3072 0 0
lfoot 0.0795218 -0.325114 0
ltoes -12.9409 0 0
rfemur -15.5695 -5.92523 19.2645
rtibia 81.8083 0 0
rfoot 12.4156 -6.51596 0
rtoes 20.911 0 0
lowerback 17.7668 -1.15443 -3.02564
upperback 2.5228 -2.18624 -1.35326
thorax -7.18031 -1.00404 0.781382
lowerneck -7.04681 0.339266 -1.42229
upperneck -8.10586 0.632899 1.57736
head -1.31144 0.32589 0.764053
lclavicle -1.02087e-14 3.42251e-14 0
lhumerus -31.8351 -17.4057 88.4181
lradius 106.554 0 0
lwrist 28.3154 0 0
lhand -36.522 7.67586 0
lfingers 7.12502 0 0
lthumb -9.61348 37.4364 0
rclavicle -1.02087e-14 3.42251e-14 0
rhumerus -45.2626 8.20347 -84.8646
rradius 83.002 0 0
rwrist -0.432555 0 0
rhand -44.5747 38.3267 0
rfingers 7.12502 0 0
rthumb -17.3743 9.08322 0
102
root 0.659978 17.4723 18.1909 -0.250093 1.00936 2.29616
lfemur -6.78464 1.94491 -23.1658
ltibia 60.2238 0 0
lfoot 1.42397 -0.332212 0
ltoes -12.6632 0 0
rfemur -15.7697 -5.37574 19.6725
rtibia 79.5473 0 0
rfoot 11.2812 -6.5111 0
rtoes 20.3142 0 0
lowerback 17.7561 -1.17942 -2.78345
upperback 2.48039 -2.16273 -1.21556
thorax -7.2239 -0.997111 0.786734
lowerneck -7.02956 0.469512 -1.34806
upperneck -8.10351 0.786297 1.28571
head -1.31121 0.403814 0.660738
lclavicle -1.13427e-14 3.34268e-14 0
lhumerus -32.5347 -17.5278 88.7201
lradius 106.507 0 0
lwrist 28.2815 0 0
lhand -36.5788 7.73364 0
lfingers 7.12502 0 0
lthumb -9.66833 37.4916 0
rclavicle -1.13427e-14 3.34268e-14 0
rhumerus -44.9314 8.39404 -84.8725
rradius 83.4338 0 0
rwrist -0.578329 0 0
rhand -44.5707 38.3409 0
rfingers 7.12502 0 0
rthumb -17.3705 9.09705 0
103
root 0.664694 17.4737 18.7319 -0.250579 0.619587 2.1621
lfemur -6.32129 2.47462 -22.7139
ltibia 62.175 0 0
lfoot 2.78523 -0.34074 0
ltoes -12.3819 0 0
rfemur -15.9714 -4.81837 20.0884
rtibia 77.2535 0 0
rfoot 10.1277 -6.50617 0
rtoes 19.7026 0 0
lowerback 17.7455 -1.20452 -2.53685
upperback 2.43752 -2.13833 -1.0755
thorax -7.26811 -0.989839 0.791914
lowerneck -7.01031 0.601741 -1.27242
upperneck -8.1039 0.941949 0.989686
head -1.31207 0.482914 0.555781
lclavicle -1.24881e-14 3.2614e-14 0
lhumerus -33.2456 -17.6489 89.0273
lradius 106.459 0 0
lwrist 28.2491 0 0
lhand -36.6372 7.794 0
lfingers 7.12502 0 0
lthumb -9.7246 37.5492 0
rclavicle -1.24881e-14 3.2614e-14 0
rhumerus -44.5926 8.58774 -84.8815
rradius 83.8752 0 0
rwrist -0.726152 0 0
rhand -44.5668 38.3551 0
rfingers 7.12502 0 0
rthumb -17.3668 9.11093 0
